<?xml version="1.0" standalone="no"?>
<svg xmlns="http://www.w3.org/2000/svg" viewBox="0 0 106.629 36" width="106.629" height="36"><g fill="#fca311" color="#fca311" transform="translate(0 6.239999999999998) scale(0.5600001)"><svg width="50.0" height="42.0" x="0.0" y="0.0" viewBox="0 0 50 42"><path fill="currentColor" fill-rule="nonzero" d="M21.3 13.56l5.81 12.46-10.95-2.3-5.81-12.46 10.95 2.3zm20.86-9.73l5.81 12.46-10.95-2.3-5.81-12.46 10.95 2.3zm-8.91 36.83L8.44 36.19 16 24.99l12.1 2.54c.05.01.09.01.13.01.09 0 .18-.02.27-.06.01 0 .01-.01.01-.01.03-.01.05-.04.08-.06.03-.02.05-.05.08-.07.03-.03.07-.05.09-.08l8.11-12.01 11.19 2.35-14.81 23.06zm16.45-23.3c.01-.02.02-.03.03-.05.01-.05-.02-.08-.03-.13 0-.07.01-.13-.02-.2-.01-.02.01-.05-.01-.07L43.19 3c-.01-.02-.03-.02-.03-.03-.04-.07-.11-.11-.18-.16-.07-.05-.12-.11-.2-.14-.02-.01-.02-.02-.04-.03L30.22.01c-.04-.01-.08.03-.13.03-.07 0-.13 0-.19.02-.03.01-.06-.01-.08 0-.01.01-.02.03-.03.03-.05.03-.08.07-.12.12-.03.03-.08.03-.11.07l-8.11 12.01-12.1-2.54c-.05-.01-.08.02-.13.02-.07 0-.12 0-.19.02-.03.01-.06-.01-.08.01-.02.01-.02.03-.03.03-.05.03-.08.07-.12.12-.03.03-.08.03-.11.07L.34 22.37c-.02.02 0 .05-.02.08-.04.08-.04.15-.05.23-.01.08-.02.16.01.24.02.03 0 .05.01.08l6.49 13.91c.01.02.03.03.05.05.02.04.04.06.07.09.03.03.05.06.08.08.01.01.01.03.02.04 0 0 .01 0 .01.01.05.03.11.04.17.05.03.01.04.04.06.04l26.2 4.72a.61.61 0 0 0 .48-.12c.03-.02.05-.05.08-.07.03-.03.07-.05.1-.09l15.54-24.18c.02-.02 0-.05.01-.07.02-.04.03-.07.05-.1z"></path></svg></g><path fill="#fca311" fill-rule="nonzero" d="M0 21.52L0 1.50L3.29 1.50Q3.86 1.50 4.53 1.55Q5.20 1.59 5.88 1.78Q6.55 1.96 7.18 2.32Q7.80 2.68 8.29 3.32Q8.78 3.95 9.07 4.90Q9.36 5.86 9.36 7.22L9.36 7.22L9.36 7.72Q9.36 10.01 8.71 11.44Q8.05 12.88 6.77 13.51L6.77 13.51L9.98 21.52L6.77 21.52L4.11 14.03L2.98 14.03L2.98 21.52L0 21.52ZM2.98 11.84L3.43 11.84Q4.23 11.84 4.78 11.66Q5.33 11.48 5.67 11.07Q6.01 10.65 6.16 9.97Q6.32 9.28 6.32 8.27L6.32 8.27L6.32 6.69Q6.32 5.92 6.18 5.36Q6.04 4.79 5.70 4.43Q5.37 4.07 4.82 3.89Q4.27 3.71 3.43 3.71L3.43 3.71L2.98 3.71L2.98 11.84ZM16.16 21.69L16.16 21.69Q15.64 21.69 15.11 21.61Q14.58 21.53 14.08 21.27Q13.58 21.01 13.14 20.53Q12.70 20.05 12.38 19.27Q12.05 18.48 11.86 17.33Q11.67 16.18 11.67 14.59L11.67 14.59L11.67 12.06Q11.67 10.49 11.87 9.37Q12.06 8.25 12.39 7.49Q12.73 6.73 13.17 6.28Q13.62 5.82 14.12 5.58Q14.61 5.34 15.14 5.27Q15.67 5.19 16.17 5.19L16.17 5.19Q16.65 5.19 17.17 5.26Q17.68 5.33 18.18 5.56Q18.67 5.79 19.11 6.24Q19.55 6.69 19.88 7.45Q20.21 8.21 20.41 9.35Q20.60 10.48 20.60 12.06L20.60 12.06L20.60 14.59Q20.60 16.16 20.40 17.30Q20.20 18.43 19.86 19.22Q19.52 20.00 19.08 20.49Q18.63 20.98 18.14 21.25Q17.65 21.52 17.14 21.60Q16.63 21.69 16.16 21.69ZM16.18 19.41L16.18 19.41Q16.58 19.41 16.86 19.20Q17.13 19.00 17.30 18.53Q17.47 18.06 17.55 17.29Q17.63 16.52 17.63 15.39L17.63 15.39L17.63 11.41Q17.63 10.28 17.55 9.50Q17.47 8.73 17.30 8.26Q17.13 7.78 16.86 7.57Q16.58 7.36 16.18 7.36L16.18 7.36Q15.76 7.36 15.47 7.57Q15.19 7.78 15 8.26Q14.81 8.73 14.73 9.50Q14.65 10.28 14.65 11.41L14.65 11.41L14.65 15.39Q14.65 16.52 14.73 17.29Q14.81 18.06 15 18.53Q15.19 19.00 15.47 19.20Q15.76 19.41 16.18 19.41ZM23.54 22.62L25.64 22.62Q25.64 23.66 26.03 24.09Q26.41 24.53 27.22 24.53L27.22 24.53Q27.55 24.53 27.86 24.43Q28.16 24.33 28.39 24.06Q28.62 23.80 28.76 23.33Q28.90 22.86 28.90 22.13L28.90 22.13L28.90 19.58Q28.50 20.10 27.87 20.47Q27.25 20.84 26.32 20.84L26.32 20.84Q26.05 20.84 25.69 20.78Q25.32 20.73 24.94 20.54Q24.55 20.36 24.18 19.97Q23.80 19.59 23.51 18.95Q23.21 18.30 23.03 17.34Q22.85 16.37 22.85 15L22.85 15L22.85 10.76Q22.85 9.45 23.03 8.53Q23.21 7.61 23.51 6.98Q23.80 6.36 24.18 6.01Q24.56 5.66 24.96 5.48Q25.35 5.30 25.72 5.25Q26.10 5.20 26.39 5.20L26.39 5.20Q26.98 5.20 27.43 5.36Q27.88 5.51 28.21 5.76Q28.55 6.01 28.78 6.33Q29.02 6.64 29.18 6.96L29.18 6.96L29.45 5.37L31.76 5.37L31.76 20.86Q31.76 22.21 31.50 23.29Q31.24 24.38 30.69 25.14Q30.14 25.91 29.29 26.32Q28.44 26.73 27.26 26.73L27.26 26.73Q26.46 26.73 25.76 26.59Q25.05 26.45 24.53 26.09Q24 25.73 23.70 25.12Q23.39 24.50 23.39 23.55L23.39 23.55Q23.39 23.39 23.43 23.14Q23.46 22.90 23.54 22.62L23.54 22.62ZM27.33 18.54L27.33 18.54Q27.62 18.54 27.85 18.44Q28.08 18.34 28.26 18.18Q28.44 18.01 28.58 17.80Q28.71 17.59 28.80 17.37L28.80 17.37L28.80 8.54Q28.58 8.05 28.21 7.71Q27.84 7.36 27.32 7.36L27.32 7.36Q26.99 7.36 26.72 7.48Q26.45 7.59 26.25 7.92Q26.05 8.24 25.94 8.81Q25.83 9.38 25.83 10.28L25.83 10.28L25.83 15.59Q25.83 16.49 25.94 17.06Q26.05 17.64 26.25 17.96Q26.45 18.29 26.72 18.42Q27 18.54 27.33 18.54ZM38.75 21.69L38.75 21.69Q37.71 21.69 36.91 21.30Q36.11 20.92 35.55 20.10Q35.00 19.28 34.72 17.99Q34.44 16.71 34.44 14.91L34.44 14.91L34.44 11.86Q34.44 10.32 34.67 9.23Q34.90 8.13 35.27 7.39Q35.64 6.64 36.12 6.21Q36.61 5.78 37.13 5.55Q37.64 5.32 38.15 5.26Q38.66 5.19 39.09 5.19L39.09 5.19Q39.89 5.19 40.63 5.43Q41.37 5.67 41.93 6.25Q42.49 6.83 42.83 7.80Q43.16 8.78 43.16 10.23L43.16 10.23Q43.16 10.72 43.13 11.23Q43.10 11.73 43.05 12.22Q43.01 12.70 42.93 13.16Q42.86 13.62 42.77 14.00L42.77 14.00L37.42 14.00L37.42 15.64Q37.42 16.70 37.50 17.42Q37.58 18.14 37.78 18.58Q37.97 19.02 38.30 19.21Q38.64 19.41 39.14 19.41L39.14 19.41Q39.41 19.41 39.67 19.29Q39.93 19.18 40.12 18.93Q40.31 18.67 40.43 18.24Q40.55 17.81 40.55 17.18L40.55 17.18L40.55 16.68L43.02 16.68L43.02 17.30Q43.02 19.59 41.92 20.64Q40.83 21.69 38.75 21.69ZM37.42 12.01L40.39 12.01Q40.41 11.88 40.42 11.67Q40.43 11.45 40.44 11.21Q40.44 10.98 40.44 10.75Q40.44 10.52 40.44 10.36L40.44 10.36Q40.44 8.77 40.07 8.06Q39.69 7.36 38.95 7.36L38.95 7.36Q38.57 7.36 38.27 7.54Q37.98 7.72 37.79 8.15Q37.61 8.58 37.51 9.28Q37.42 9.98 37.42 11.03L37.42 11.03L37.42 12.01ZM45.67 21.52L45.67 5.38L47.84 5.38L48.09 7.02Q48.59 6.11 49.22 5.65Q49.86 5.19 50.53 5.19L50.53 5.19Q51.81 5.19 52.42 5.98Q53.03 6.76 53.03 8.33L53.03 8.33Q53.03 8.53 53.00 8.81Q52.97 9.08 52.92 9.38Q52.86 9.68 52.79 9.98Q52.71 10.28 52.63 10.52L52.63 10.52L50.57 10.52L50.57 9.02Q50.57 8.53 50.50 8.21Q50.44 7.90 50.33 7.71Q50.23 7.51 50.09 7.44Q49.95 7.36 49.78 7.36L49.78 7.36Q49.43 7.36 49.13 7.59Q48.83 7.82 48.63 8.23L48.63 8.23L48.63 21.52L45.67 21.52ZM55.30 21.52L55.30 7.49L53.91 7.49L53.91 5.38L55.30 5.38L55.30 4.22Q55.30 2.91 55.57 2.08Q55.84 1.25 56.31 0.79Q56.79 0.33 57.43 0.16Q58.07 0 58.80 0L58.80 0Q59.02 0 59.28 0.02Q59.54 0.05 59.81 0.10Q60.07 0.15 60.32 0.22Q60.57 0.29 60.77 0.40L60.77 0.40L60.77 2.48Q60.28 2.36 59.67 2.36L59.67 2.36Q59.38 2.36 59.12 2.45Q58.85 2.54 58.65 2.76Q58.45 2.98 58.34 3.33Q58.22 3.69 58.22 4.22L58.22 4.22L58.22 5.38L60.46 5.38L60.46 7.49L58.22 7.49L58.22 21.52L55.30 21.52ZM66.19 21.69L66.19 21.69Q65.67 21.69 65.14 21.61Q64.61 21.53 64.11 21.27Q63.61 21.01 63.17 20.53Q62.73 20.05 62.40 19.27Q62.07 18.48 61.89 17.33Q61.70 16.18 61.70 14.59L61.70 14.59L61.70 12.06Q61.70 10.49 61.89 9.37Q62.09 8.25 62.42 7.49Q62.75 6.73 63.20 6.28Q63.64 5.82 64.14 5.58Q64.64 5.34 65.17 5.27Q65.70 5.19 66.20 5.19L66.20 5.19Q66.68 5.19 67.20 5.26Q67.71 5.33 68.20 5.56Q68.70 5.79 69.13 6.24Q69.57 6.69 69.91 7.45Q70.24 8.21 70.44 9.35Q70.63 10.48 70.63 12.06L70.63 12.06L70.63 14.59Q70.63 16.16 70.43 17.30Q70.23 18.43 69.89 19.22Q69.55 20.00 69.11 20.49Q68.66 20.98 68.17 21.25Q67.68 21.52 67.17 21.60Q66.66 21.69 66.19 21.69ZM66.21 19.41L66.21 19.41Q66.61 19.41 66.88 19.20Q67.16 19.00 67.33 18.53Q67.50 18.06 67.58 17.29Q67.65 16.52 67.65 15.39L67.65 15.39L67.65 11.41Q67.65 10.28 67.58 9.50Q67.50 8.73 67.33 8.26Q67.16 7.78 66.88 7.57Q66.61 7.36 66.21 7.36L66.21 7.36Q65.79 7.36 65.50 7.57Q65.21 7.78 65.03 8.26Q64.84 8.73 64.76 9.50Q64.68 10.28 64.68 11.41L64.68 11.41L64.68 15.39Q64.68 16.52 64.76 17.29Q64.84 18.06 65.03 18.53Q65.21 19.00 65.50 19.20Q65.79 19.41 66.21 19.41Z" transform="translate(36, 7.243)"></path></svg>